<svg xmlns="http://www.w3.org/2000/svg" width="80.093" height="103.2" viewBox="0 0 80.093 103.2"><defs><style>.a,.f{fill:#0b0c0c;}.a,.b,.d{fill-rule:evenodd;}.b{fill:#aaa;}.c{isolation:isolate;}.d,.h{fill:#fff;}.e{fill:none;stroke:#fff;stroke-linecap:round;stroke-miterlimit:10;stroke-width:2px;}.g{fill:#f9f9f9;}</style></defs><g transform="translate(-467.429 -40.333)"><g transform="translate(468.591 40.333)"><path class="a" d="M546.407,108.9h-6.082a111.727,111.727,0,0,0,2.65-25.193,99.985,99.985,0,0,0-24.085-9.47l.059-1.127-3.578-1.022-5.039-5.332-1.9-1.242-5.331-1.46-7.668-.219-2.775-1.315-.438.731,4.235,4.017-2.409,1.388-.949,1.68-.439,3.287-1.213,2.532a116.843,116.843,0,0,0-17.92,7.475,82.557,82.557,0,0,0,2.134,25.272h-7.026l4.607,30.6a117.4,117.4,0,0,1,14.489-4.158A53.5,53.5,0,0,0,508,151.919a58.865,58.865,0,0,0,20.214-16.508,107.74,107.74,0,0,1,13.665,4.087Z" transform="translate(-468.61 -49.696)"/><g transform="translate(12.592 28.741)"><path class="b" d="M492.72,113.81a30.8,30.8,0,0,1-.636-4.316,5.66,5.66,0,0,0,6.456,2.481s-5.6.018-6.419-5.682a20.958,20.958,0,0,1,.954-4.822,6.446,6.446,0,0,0,5.83,3.784s-5.707-1.093-4.345-6.935c2.874-4.288,8.64-7.22,9.872-7.845-.217-.149-.429-.287-.634-.413-6.471,2.562-10.886,6.019-12.679,13.659a28.706,28.706,0,0,0,.174,13.732H499c-4.577-.347-5.772-1.1-6.284-3.643" transform="translate(-490.379 -90.062)"/></g><g class="c" transform="translate(6.806 25.027)"><path class="d" d="M512.949,157.408a48.629,48.629,0,0,1-17.036-13.644c-.5.068-.925.135-1.29.2a50.131,50.131,0,0,0,18.358,14.688,55.5,55.5,0,0,0,18.363-14.713c-.379-.064-.82-.131-1.333-.2a53.667,53.667,0,0,1-17.062,13.671M543.424,118a105.349,105.349,0,0,0,2.447-23.5,95.048,95.048,0,0,0-32.659-10.86,104.36,104.36,0,0,0-32.639,10.785,77.6,77.6,0,0,0,1.953,23.544l-.041.074h9.2v-.658H483.6a79.23,79.23,0,0,1-2.007-22.137,100.963,100.963,0,0,1,31.583-10.438,91.965,91.965,0,0,1,31.6,10.511,107.194,107.194,0,0,1-2.451,22.065h-8.357v.658h9.493l-.038-.038Z" transform="translate(-480.367 -83.636)"/></g><g class="c" transform="translate(0 12.686)"><path class="e" d="M546.363,108.664h-6.081a111.751,111.751,0,0,0,2.649-25.193A99.947,99.947,0,0,0,518.847,74l.059-1.127-3.578-1.023-5.039-5.332-1.9-1.241-5.331-1.461-7.668-.219-2.775-1.315-.438.731,4.235,4.017L494,68.419l-.95,1.68-.438,3.287L491.4,75.918a116.821,116.821,0,0,0-17.919,7.475,82.521,82.521,0,0,0,2.134,25.272h-7.027l4.607,30.6a117.316,117.316,0,0,1,14.489-4.158,53.5,53.5,0,0,0,20.264,16.579,58.859,58.859,0,0,0,20.213-16.508,107.79,107.79,0,0,1,13.665,4.087Z" transform="translate(-468.591 -62.283)"/></g><path class="d" d="M519.06,115.309c-.325,1.974-1.224,4.257-3.215,4.257-3.019,0-6.972-3.5-8.606-5.5-.93,3,.232,4.957,2.325,5.862h13.146a5.545,5.545,0,0,1-3.649-4.622m-4.822-3.7a5.6,5.6,0,0,0,3.045-1.563,3.588,3.588,0,0,1,.52-4.323c-1.029,1.029-2.458,2.189-4.15,1.649-2.3-.735-3.181-4.147-4.016-5.916a6.916,6.916,0,0,0-1.9,2.41,7.4,7.4,0,0,0-.322,2.894c1.486,1.9,4.209,4.848,6.822,4.848m.631-5.564a6.041,6.041,0,0,0,3.309-1.288,3.588,3.588,0,0,1,4.312-2.57s-4.426-3.423-7.619-6.248a12.726,12.726,0,0,0-3.059,3.879c1.081,1.514,1.124,6.071,3.057,6.227m.464,11.481c1.578,0,2.95-1.554,3.526-2.619a4.029,4.029,0,0,1-1.462-4.172c-.7,1.108-1.839,2.919-3.378,2.919-2.871,0-5.548-4.548-6.676-6.6a5.7,5.7,0,0,0-.188,6.306c1.414,1.244,4.633,4.163,8.179,4.163" transform="translate(-484.503 -63.799)"/><g transform="translate(9.531)"><path class="f" d="M538.356,80.036a1.116,1.116,0,0,0,.1-1.009,4.876,4.876,0,0,0-1.99-2.373,2.038,2.038,0,0,0,.235-.838,3.148,3.148,0,0,0-.569-1.973,3.885,3.885,0,0,0-.175-5.97,7.392,7.392,0,0,0-2.021-1.15,10.409,10.409,0,0,1-2.007-.986,2.76,2.76,0,0,1-.907-.859.69.69,0,0,1,.131-.9,3.212,3.212,0,0,1,1.184-.685c.133-.046.266-.091.4-.135a9.509,9.509,0,0,0,1.573-.632,2.377,2.377,0,0,0,1.224-3.211,5.167,5.167,0,0,0-2.714-1.961,1.129,1.129,0,0,0-.388-.069,1.117,1.117,0,0,0-.471,2.13,5.344,5.344,0,0,1,1.019.63,5.158,5.158,0,0,1-.715.221,8.162,8.162,0,0,0-2.854,1.271,3.788,3.788,0,0,0-1.349,1.718,5.521,5.521,0,0,0-.131-.939,28.675,28.675,0,0,0-1.189-3.937,1.56,1.56,0,0,0-1.411-1.1l-.071,0c-.032,0-.064,0-.095,0-.224-.735-.416-1.41-.521-1.8a1.117,1.117,0,0,0-1.54-.722,1.66,1.66,0,0,0-.873,1.573,12.738,12.738,0,0,0,.241,2.549,3.18,3.18,0,0,0-.332-.114l-.019,0a19.291,19.291,0,0,1-1.17-3.159c-.09-.325-.168-.655-.25-1a13.423,13.423,0,0,0-.8-2.589c-1.258-2.733-4.943-5.638-6.238-6.276a1.117,1.117,0,0,0-1.309,1.765c.148.158.3.312.443.463.3.306.576.6.818.892a8.46,8.46,0,0,1,1.868,3.085c.11.418.22.831.329,1.239a30.206,30.206,0,0,0-3.506-4.14l-.022-.021c-4.249-4.013-4.43-7.566-4.432-7.6a1.113,1.113,0,0,0-1.083-1.089h-.034a1.122,1.122,0,0,0-1.113,1.03,12.539,12.539,0,0,0,.537,3.921c0,.018.01.036.016.054a27.5,27.5,0,0,0,1.689,4.253c-.142-.152-.287-.31-.437-.473A35.469,35.469,0,0,0,504,45.756a13.374,13.374,0,0,0-8.217-3.408c-.077,0-.118,0-.118,0a1.117,1.117,0,0,0-.206,2.2,13.308,13.308,0,0,1,4.984,2.613,28.37,28.37,0,0,1,3.334,3.641q-.2-.127-.4-.27a1.116,1.116,0,0,0-1.367.05,1.123,1.123,0,0,0-.4.806,1.1,1.1,0,0,0,.066.4,23.707,23.707,0,0,1-3.383-2.586l-.321-.294-.216-.2a1.117,1.117,0,0,0-1.846,1.057,11.513,11.513,0,0,0,2.342,3.279,1.128,1.128,0,0,0-.177.205l-.007-.017a1.117,1.117,0,0,0-2.128.669,8.579,8.579,0,0,0,.4,1.1l-.045-.049a8.392,8.392,0,0,0-3.156-2.46c-.062-.027-.129-.059-.2-.094a6.276,6.276,0,0,0-2.5-.676l-.072,0a1.117,1.117,0,0,0-.392,2.163,4.547,4.547,0,0,1,2.453,2.1l.177.31a15.648,15.648,0,0,0,.822,1.333s-.833-.865-1.114-.4c-.51.841,1.2,2.876,1.71,3.305-1.916-.637-3.269-1.545-3.579-1.545a1.117,1.117,0,0,0-.875,1.811,8.959,8.959,0,0,0,1.817,1.715,14.964,14.964,0,0,0,3.928,2.063l.076.028a13.733,13.733,0,0,1-3.451.376,19.884,19.884,0,0,1-2.2-.117,1.036,1.036,0,0,0-.14-.009,1.117,1.117,0,0,0-.373,2.169,17.111,17.111,0,0,0,4.656.843,7.023,7.023,0,0,1-1.807.24,5.849,5.849,0,0,1-1.292-.129,1.122,1.122,0,0,0-1.324.69,1.113,1.113,0,0,0-.061.505,17.7,17.7,0,0,1-2.638-1.284,1.117,1.117,0,0,0-1.292,1.812,19.6,19.6,0,0,0,2.908,2.115h-.09c-.524,0-1.054-.01-1.5-.02h-.025a1.117,1.117,0,0,0-.532,2.1,8.839,8.839,0,0,0,4.2.966,12.229,12.229,0,0,0,1.973-.173,1.115,1.115,0,0,0,.706,1.978,1.1,1.1,0,0,0,.279-.036,20.85,20.85,0,0,0,5.672-3.005l.048-.032c-.82,1.428-1.414,2.579-1.451,2.65a1.117,1.117,0,0,0,1.887,1.181c.148-.2.47-.62.785-1.013,0,.014,0,.027,0,.041a1.172,1.172,0,0,0,.019.164c0,.023.007.047.013.07a1.143,1.143,0,0,0,.075.212l0,.009a1.142,1.142,0,0,0,.127.2c.014.019.031.035.047.053a1.132,1.132,0,0,0,.126.121c.011.009.019.021.031.029s.028.017.042.027.046.03.07.044.074.039.112.056c.014.006.027.016.042.021l.025.007a1.174,1.174,0,0,0,.131.038c.02,0,.039.011.06.014a1.174,1.174,0,0,0,.174.016h.016a1.077,1.077,0,0,0,.183-.017l.051-.011a1.106,1.106,0,0,0,.13-.036l.053-.019a1.1,1.1,0,0,0,.165-.081h0a1.156,1.156,0,0,0,.151-.114c.005,0,.011-.008.017-.013l.307-.28a5.485,5.485,0,0,0-.372.817,3.741,3.741,0,0,0,.835,4.112,3.635,3.635,0,0,0,2.589,1.073,4.593,4.593,0,0,0,1.512-.272,2.923,2.923,0,0,0,1.819-1.9,2.618,2.618,0,0,0-.37-2.356,2.363,2.363,0,0,0-1.246-.952,1.144,1.144,0,0,0-.288-.036,1.113,1.113,0,0,0-.973.555,1.1,1.1,0,0,0,.173,1.332.71.71,0,0,1,.172.359.5.5,0,0,1-.177.178.518.518,0,0,1-.28.075.864.864,0,0,1-.816-.636c-.071-.355-.235-1.185,1.28-1.784a5.841,5.841,0,0,1,2.16-.455,4.735,4.735,0,0,1,2.663.857c.686.453,1.376.932,2.047,1.4a1.13,1.13,0,0,0,.21,1.113l.05.074c.043.065.1.141.15.215a1.331,1.331,0,0,0,.05,1.044,15.645,15.645,0,0,1,.974,3.219,2.107,2.107,0,0,1-1.6,2.258,1.116,1.116,0,0,0-.812,1.183A1.306,1.306,0,0,0,513.6,89.44a6.7,6.7,0,0,0,1.22-.119A5.7,5.7,0,0,1,513.426,91a1.117,1.117,0,0,0,.172,1.806c-.284.3-.614.623-1,.993a1.117,1.117,0,0,0,.774,1.923,3.836,3.836,0,0,0,1.555-.661,1.121,1.121,0,0,0,.657.213l.069,0q-.071.13-.138.247a1.117,1.117,0,0,0,1.632,1.452l.071-.053a1.1,1.1,0,0,0,.2.254,1.115,1.115,0,0,0,.771.309,1.128,1.128,0,0,0,.306-.043c-.1.29-.21.588-.306.893a1.117,1.117,0,0,0,1.84,1.141,12.3,12.3,0,0,0,1.58-1.932,1.038,1.038,0,0,0,.581.187,1.1,1.1,0,0,0,1.09-1.041,6.087,6.087,0,0,1,.369-.773,1.112,1.112,0,0,0,.39.071h.024a1.117,1.117,0,0,0,1.091-1.047,2.454,2.454,0,0,1,.119-.6,1.434,1.434,0,0,1,.063-.132,1.1,1.1,0,0,0,.352.057,1.117,1.117,0,0,0,.826-.365,2.423,2.423,0,0,0,.315-.429,1.225,1.225,0,0,0,.841-.457,1.363,1.363,0,0,0,.173-.28,2,2,0,0,1,.388.322,1.117,1.117,0,0,0,1.8-.021,1.108,1.108,0,0,0,.169-.356,11.467,11.467,0,0,1,2.144,1.676,1.118,1.118,0,0,0,1.889-.817c0-.163,0-.487-.7-1.46a1.133,1.133,0,0,0,.217-.228,1.117,1.117,0,0,0-.134-1.456,10.966,10.966,0,0,0-1.533-1.27,1.126,1.126,0,0,0,.106-.985,2.987,2.987,0,0,0-2.091-1.711c.08-.034.157-.07.238-.1,1.231-.505,1.214-1.326,1.149-1.655a1.32,1.32,0,0,0-.039-.127,1.111,1.111,0,0,0,.4-.335,8.6,8.6,0,0,0,.747-1.25h.029a1.116,1.116,0,0,0,.782-.32c.048-.047.2-.2.366-.4a1.124,1.124,0,0,0,.652.332,1.04,1.04,0,0,0,.152.011,1.083,1.083,0,0,0,.574-.169c.006.028.008.044.008.045a1.111,1.111,0,0,0,.936.957,1.063,1.063,0,0,0,.17.013,1.122,1.122,0,0,0,1.014-.65,3.4,3.4,0,0,0,.231-.766,1.118,1.118,0,0,0,.994-1.259A5.874,5.874,0,0,0,538.356,80.036Zm-21.228-3.615c.065-.138.122-.276.174-.409a4.328,4.328,0,0,1,.644.966c.106.225.2.431.277.629a7.171,7.171,0,0,1-1.217-.322l-.063-.02-.04-.017c-.051-.021-.121-.048-.2-.075A5.6,5.6,0,0,0,517.128,76.421Zm12.653,7.108h-.014a7.333,7.333,0,0,0-1.4.142,4.05,4.05,0,0,0,.308-.831,1.118,1.118,0,0,0,.178-.09l.034-.022a1.2,1.2,0,0,0,.184.136,1.115,1.115,0,0,0,.57.156,1.148,1.148,0,0,0,.213-.02c0,.251-.02.417-.021.42a1.032,1.032,0,0,0,0,.112C529.814,83.532,529.8,83.529,529.781,83.529Zm.182-15.505a11.682,11.682,0,0,0,1.552.883c.145.073.291.145.435.22a6.148,6.148,0,0,1,1.927,1.349.632.632,0,0,1,.145.226.649.649,0,0,1-.111.238,1.164,1.164,0,0,1-.706.58,1.35,1.35,0,0,0-.8.424,2.123,2.123,0,0,0-.832-.336c-.029-.006-.059-.012-.088-.019a17.276,17.276,0,0,1-2.355-1.556,8.526,8.526,0,0,0,.254-2.458C529.564,67.723,529.75,67.873,529.963,68.023Z" transform="translate(-485.082 -40.333)"/></g><g transform="translate(10.731 1.059)"><path class="g" d="M562.784,80.195a15.433,15.433,0,0,0,1.858,1.024,7.1,7.1,0,0,1,2.266,1.62,1.331,1.331,0,0,1,.124,1.782,2.284,2.284,0,0,1-1.4,1.071c-.106.026-.255.014-.256.194,0,.121.033.2.17.214a3.3,3.3,0,0,1,1.232.42.269.269,0,0,0,.325-.029,2.829,2.829,0,0,0,.328-4.668,6.325,6.325,0,0,0-1.722-.975,11.357,11.357,0,0,1-2.222-1.1,3.845,3.845,0,0,1-1.25-1.225,1.8,1.8,0,0,1,.327-2.272,4.31,4.31,0,0,1,1.585-.931,12.115,12.115,0,0,0,1.81-.7,1.29,1.29,0,0,0,.748-1.742c-.366-.758-2.1-1.4-2.1-1.4s4.213,1.951.1,2.95a7.031,7.031,0,0,0-2.467,1.093,2.485,2.485,0,0,0-.546,3.656A4.846,4.846,0,0,0,562.784,80.195Z" transform="translate(-518.375 -54.539)"/><path class="g" d="M505.55,86.01l2.905-2.645A10.868,10.868,0,0,0,508.2,85.1a3.592,3.592,0,0,1,2.113-1.3c.25-.053.188-.1.042-.266-.22-.249-.446-.494-.648-.757a4.2,4.2,0,0,1-1-2.141,2.91,2.91,0,0,1,2.166-2.885,6.344,6.344,0,0,1,3.616-.066c.355.1.711.2,1.086.31,0-.34.023-.643,0-.942a4.157,4.157,0,0,1,1.033-2.984,3.6,3.6,0,0,0-1.311-2.244,7.729,7.729,0,0,0-2.3-1.419,29.642,29.642,0,0,0-5.224-1.733,8.453,8.453,0,0,1-3.583-1.522,9.819,9.819,0,0,1-3.047-3.919,12.06,12.06,0,0,0,3.79,5.549c1.9,1.608,6.915,3.369,6.915,3.369s-2.953-.654-4.323-.889-4.22-.342-6.188-1.167c-3.465-1.181-4.318-2.53-4.318-2.53s1.859,3.045,6.915,4.409c1.448.344,2.931.545,4.362.965a8.013,8.013,0,0,1,3.738,1.783h0a12.448,12.448,0,0,0-6.769.635,53.773,53.773,0,0,0-5.583,2.67,7.877,7.877,0,0,1-5.059.633,7.594,7.594,0,0,0,6.186.038c.588-.276,1.158-.588,1.748-.862a14.7,14.7,0,0,1,3.484-1.323,4.394,4.394,0,0,1,1.944-.008,7.467,7.467,0,0,0-2.757,2.211,31.527,31.527,0,0,1-8,6.433,20.24,20.24,0,0,0,5.325-2.85c1.31-.884,3.645-2.722,4.7-3.521a5.033,5.033,0,0,1,.661-.41,20.652,20.652,0,0,0-2.429,3.234c-1.417,2.223-2.72,4.753-2.72,4.753s.905-1.21,1.407-1.754a31.082,31.082,0,0,1,2.5-2.627,1.266,1.266,0,0,1,1.078-.39l-1.012,2.044Z" transform="translate(-490.303 -51.055)"/><path class="g" d="M514.612,53.577s-.4,0-.549-.011a7.143,7.143,0,0,1-3.427-1.411,5.845,5.845,0,0,0,.73,1.021c1.473,1.666,2.963,1.917,4.812,2.338a26.23,26.23,0,0,0,3.246.583,7.017,7.017,0,0,1,4.785,2.971c.325.4.62.831,1.011,1.359-.036-.413-.042-.7-.088-.97a9.534,9.534,0,0,0-1.166-3.069,26.756,26.756,0,0,0-4.547-5.843c-4.7-4.439-4.781-8.381-4.781-8.381a11.665,11.665,0,0,0,.5,3.542,28.05,28.05,0,0,0,3.669,7.6c.089.143.3.464.3.464a7.817,7.817,0,0,1-1.725-.565c-1.921-1.136-3.2-3.367-6.2-5.888a12.08,12.08,0,0,0-7.571-3.144,14.3,14.3,0,0,1,5.461,2.855A42.891,42.891,0,0,1,514.612,53.577Z" transform="translate(-494.105 -42.165)"/><path class="g" d="M530.493,88.761a2.2,2.2,0,0,1,1.2-.029c1.122.3,2.193.751,3.288,1.132a1.911,1.911,0,0,0,1.845-.344,1.852,1.852,0,0,1-.855.069,4.9,4.9,0,0,1-2.474-1.134,2.825,2.825,0,0,0-.889-.537,10,10,0,0,1-2.927-1.067,3.2,3.2,0,0,1-1.746-3.349c.016-.154.021-.309.033-.485a.781.781,0,0,0-.524.576,5.571,5.571,0,0,0-.248,2.853,10.088,10.088,0,0,0,.491,1.5,13.228,13.228,0,0,0-1.418-.873,6.579,6.579,0,0,0-2.837-.7c-1.507-.018-3.048.472-3.469,1.992a2.585,2.585,0,0,0,1.026,2.6,7.775,7.775,0,0,0,3.868,1.7,14.83,14.83,0,0,1-2.407-1.607,3.874,3.874,0,0,1-1.136-1.643,1.424,1.424,0,0,1,.17-1.339,1.675,1.675,0,0,1,2.838.383,6.178,6.178,0,0,1,.616,2.992,3.694,3.694,0,0,0,.993-2.827c-.007-.331.1-.334.321-.247a1.77,1.77,0,0,1,.9.915,5.405,5.405,0,0,1,.546,3.524,4.5,4.5,0,0,0,.784-1.573c.082-.405.227-.31.43-.116a3.478,3.478,0,0,1,1.049,2.055,8.984,8.984,0,0,1-.147,2.135,3.717,3.717,0,0,0,1.071-1.413,6.147,6.147,0,0,0,.412-1.233,6.811,6.811,0,0,0,2.917.172,3.433,3.433,0,0,1,2.878,1.03c.421.411.5.386.908-.06a12.507,12.507,0,0,1,2.218-2.126c.542-.361.58-.456.26-1.052a2.9,2.9,0,0,0-.224-.358,13.25,13.25,0,0,0-2.952-2.233s.19.151.278.228a5.674,5.674,0,0,1,1.836,2.422.688.688,0,0,1-.127.757,2.184,2.184,0,0,1-2.031.57,2.064,2.064,0,0,0,.925-1.733,6.6,6.6,0,0,1-7.144.7,2.76,2.76,0,0,1-1.021-.807A.836.836,0,0,1,530.493,88.761Z" transform="translate(-500.971 -59.406)"/><path class="g" d="M551.161,120.1a7.546,7.546,0,0,1,2.479.81,9.266,9.266,0,0,0-1.491-1.224,3.87,3.87,0,0,0-4.789.2,21.679,21.679,0,0,0-2.483,2.314,9.86,9.86,0,0,1-1.183,1.121,1.873,1.873,0,0,1-2.343-.024,3.655,3.655,0,0,1-.905-1.062,10.72,10.72,0,0,1-.922-2.2,47.133,47.133,0,0,0-2.985-7.6,7.266,7.266,0,0,0-1.078-1.543,18.292,18.292,0,0,1,1.11,3.649c.394,2.716-2.4,3.494-2.4,3.494a4.429,4.429,0,0,0,3.171-1.052,6.485,6.485,0,0,1-2.379,4.577,3.785,3.785,0,0,0,2.39-2.042c-.351,1.779-1,2.709-3.179,4.806A9.4,9.4,0,0,0,536.334,123a16.17,16.17,0,0,0,1.521-1.354,5.77,5.77,0,0,1-1.473,2.222,5.285,5.285,0,0,0,2.461-2.11,13.2,13.2,0,0,1-1.558,4.024,13.064,13.064,0,0,0,2.23-2.186c.094-.118.166-.276.359-.316a7.3,7.3,0,0,1-.887,2.794,9.283,9.283,0,0,0,2.094-1.775,12.805,12.805,0,0,1-1.031,4.08,27.254,27.254,0,0,0,2.819-3.809,6.35,6.35,0,0,0,.1,1.656,6.789,6.789,0,0,1,1.836-2.886,6.13,6.13,0,0,0,.035,1.236,3.612,3.612,0,0,1,.2-.947c.184-.459.808-1.35,1-1.326a.439.439,0,0,1,.448.55.8.8,0,0,0,.237-.826c-.058-.177-.172-.188-.049-.279.2-.106.448-.177.628.122.31.516.449-.112.367-.488-.043-.2.068-.294.346-.283a2.779,2.779,0,0,1,1.905.992,2.472,2.472,0,0,0-.649-1.385,4.721,4.721,0,0,1,1.718.415,11.31,11.31,0,0,1,2.923,2.133A9.71,9.71,0,0,0,551.161,120.1Z" transform="translate(-506.999 -71.168)"/><path class="g" d="M532.469,101.56a4,4,0,0,0,4.365-2.042c.232-.406.479-.8.722-1.2a10.564,10.564,0,0,1,1.345-1.871,3.01,3.01,0,0,1,2.319-1.044,6.714,6.714,0,0,1,2.009.274c.092.031.269.169.316.006.017-.058-.067-.186-.136-.259a25.433,25.433,0,0,0-5.8-5.144c-.57-.337-2.356-1.247-2.356-1.247s.281.252.425.375a29.9,29.9,0,0,1,3.154,2.991,7.589,7.589,0,0,1,1.079,1.5c.065.127.187.252-.08.328A4.521,4.521,0,0,0,537,96.721,13.412,13.412,0,0,1,535.621,99a3.151,3.151,0,0,1-2.188,1.316,7.058,7.058,0,0,1-4.346-.949c-1.191-.692-2.254-1.567-3.37-2.366a6.9,6.9,0,0,0-5.876-1.2,4.451,4.451,0,0,0-3.442,2.836,2.654,2.654,0,0,0,.563,2.945,2.69,2.69,0,0,0,2.95.544,1.719,1.719,0,0,0,.921-2.537,1.349,1.349,0,0,0-.628-.538,1.42,1.42,0,0,1-.191,2.232,1.919,1.919,0,0,1-2.816-1.27c-.279-1.406.459-2.445,1.965-3.041a5.952,5.952,0,0,1,5.849.507c1.373.906,2.7,1.877,4.068,2.792A7.7,7.7,0,0,0,532.469,101.56Z" transform="translate(-499.411 -61.945)"/><path class="g" d="M507.856,60.5a1.087,1.087,0,0,0,.135.381,6.812,6.812,0,0,0,4.454,3.5,22.229,22.229,0,0,1,3.647,1.185c1.776.748,5.186,2.714,5.186,2.714a9.622,9.622,0,0,0-1.891-2.169,7.159,7.159,0,0,0-1.875-1.306,6.394,6.394,0,0,1,2.758.563,9.392,9.392,0,0,1,3.654,2.653,7.535,7.535,0,0,0-1.4-2.859,7.2,7.2,0,0,0-3.742-2.346,25.265,25.265,0,0,1-12.391-6.163l-.536-.49c.129.606,2.441,3.3,3.619,4.36a13.686,13.686,0,0,0,3.754,2.618A6.879,6.879,0,0,1,507.856,60.5Z" transform="translate(-495.05 -48.07)"/><path class="g" d="M537.208,56.233c.9,3.423,1.848,6.834,2.865,10.226a13.2,13.2,0,0,1,.73,2.7,3.888,3.888,0,0,0,.643,1.859,6.705,6.705,0,0,0,3.49,2.63.236.236,0,0,0,.3-.113s-1.578-.669-3.027-3.956a50.572,50.572,0,0,1-3.3-11.592s.665,2.464.931,3.485a14.327,14.327,0,0,0,2.281,5.077,30.357,30.357,0,0,1,2.285,3.689,37.068,37.068,0,0,1,1.4,3.5s.658-1.786-2.155-6.734a20,20,0,0,1-3.131-6.522,21.917,21.917,0,0,0-.992-3.423c-1.1-2.391-4.49-5.136-5.718-5.741.455.486.912.924,1.31,1.41A9.463,9.463,0,0,1,537.208,56.233Z" transform="translate(-506.849 -46.027)"/><path class="g" d="M535.882,108.291h0c-.043-.032-.09-.07-.129-.006-.008.011.037.055.058.084.084.124.164.251.254.37a21.257,21.257,0,0,1,3.48,6.557c.288.92.6,1.833.922,2.741a11.14,11.14,0,0,0,1.544,3.2,1.362,1.362,0,0,0,2.185.291A14.989,14.989,0,0,0,545.8,120a13.721,13.721,0,0,1,2.441-2.084,5.406,5.406,0,0,1,4.364-.781,1.907,1.907,0,0,0-1.563-1.089,4.462,4.462,0,0,0-2.779.6,16.955,16.955,0,0,0-3.631,2.676,1.173,1.173,0,0,1-1.981-.2,5.11,5.11,0,0,1-.847-2.4.616.616,0,0,1,.195-.559,10.765,10.765,0,0,0,1.705-2.1,4.981,4.981,0,0,0,.529-2.313,9.433,9.433,0,0,1-.974,1.3,8.347,8.347,0,0,1-1.758,1.245c-.31.169-.491.148-.665-.195-.347-.684-.712-1.361-1.118-2.011A10.9,10.9,0,0,0,535.882,108.291Z" transform="translate(-507.667 -70.056)"/><path class="g" d="M564.094,100.438a.721.721,0,0,0,.981-.692,2.248,2.248,0,0,0-1.458-2.143,1.707,1.707,0,0,0-1.733-.02c-.551.41-.468,1.07-.4,1.676a10.425,10.425,0,0,0,.543,2,19.708,19.708,0,0,0-2.46-1.56,3.51,3.51,0,0,0-4.733,1.533.4.4,0,0,0,0,.495,3.251,3.251,0,0,0,3.45.931.882.882,0,0,0,.553-.812,1.323,1.323,0,0,0-.409-1.063.313.313,0,0,0-.45.052.193.193,0,0,0,.077.331c.189.073.273.17.222.365-.061.233-.255.232-.437.22a2.679,2.679,0,0,1-.489-.075.779.779,0,0,1-.665-.8.828.828,0,0,1,.658-.772,1.186,1.186,0,0,1,1.451.7,14.742,14.742,0,0,0,1.044,1.8c.248.326.511.689.946.723a3.831,3.831,0,0,0,3.178-.978.865.865,0,0,0,.2-1.063,5.585,5.585,0,0,1-.683-1.887c.018-.338.488-.566.7-.366A.871.871,0,0,1,564.094,100.438Z" transform="translate(-515.684 -65.456)"/><path class="g" d="M501.666,80.265c1.264-.6,1.6-1.189,3.842-1.549.226-.054.725-.127.725-.127a12.348,12.348,0,0,0-1.541-.722,20.144,20.144,0,0,0-3.093-.816c-6.285-1-7.708-2.62-7.708-2.62a8.017,8.017,0,0,0,1.554,1.474,14.593,14.593,0,0,0,4.141,2.112c.621.233,1.251.443,1.992.705-2.3,2.362-8.528,1.576-8.528,1.576S498.1,82.091,501.666,80.265Z" transform="translate(-489.644 -55.783)"/><path class="g" d="M567.9,106.38a3.888,3.888,0,0,0-1.669-1.916c-.209-.145-.427-.242-.464.194a1.809,1.809,0,0,1-.691,1.232,3.722,3.722,0,0,1-4.669.076c-.106-.084-.208-.176-.313-.261-.071-.057-.132-.1-.228-.015a2.066,2.066,0,0,1-1.441.422.633.633,0,0,0-.5.258,5.7,5.7,0,0,0-.81,2.957c1.065-2.31,1.733-2.459,1.733-2.459.162-.15.371.952-.113,1.89a4.793,4.793,0,0,0,1.358-1.856,3.591,3.591,0,0,1,.143,1.009,8.51,8.51,0,0,1-.115.944,2.522,2.522,0,0,0,.607-.732,2.876,2.876,0,0,0,.206-.566,4.657,4.657,0,0,1,.428,1.234,6.68,6.68,0,0,1,.062,1.7,7.262,7.262,0,0,0,.862-1.591c.239-.658.393-1.3.393-1.3a1.851,1.851,0,0,1,.3.462,2.427,2.427,0,0,1,.124.722,3.864,3.864,0,0,0,.642-.84,2.22,2.22,0,0,0,.229-.769,3.166,3.166,0,0,1,.57.445,1.953,1.953,0,0,1,.517.758,2.018,2.018,0,0,0,.283-.862,1.969,1.969,0,0,0-.084-.694,3.4,3.4,0,0,1,.932.991,3.812,3.812,0,0,1,.551,1.434,3.273,3.273,0,0,0,.2-1.482,2.887,2.887,0,0,0-.44-1.181,3.939,3.939,0,0,1,1.37,1.256,4.793,4.793,0,0,0-.6-1.766A5.362,5.362,0,0,1,567.9,106.38Z" transform="translate(-516.678 -68.406)"/><path class="g" d="M500.68,89.209c-4.528,3.482-9.018,2.846-13.522.207a12.445,12.445,0,0,0,7.33,3.457,21.638,21.638,0,0,1-6.768.6C491.745,95.661,499.07,93.291,500.68,89.209Z" transform="translate(-487.158 -62.02)"/><path class="g" d="M535.407,76.264a8.468,8.468,0,0,1,4.233,1.81,29.053,29.053,0,0,0-.765-4.116A19.145,19.145,0,0,0,537.7,70.82s.273,1.2.449,2.455a7.136,7.136,0,0,1,.013,2.681,18.367,18.367,0,0,0-2.026-4.929,10.4,10.4,0,0,0-2.082-2.455,4.57,4.57,0,0,0-1.552-.883,9.063,9.063,0,0,1,2.041,2.357,17.528,17.528,0,0,1,1.78,4.991,1.414,1.414,0,0,1-.434-.3c-.954-.9-2.773-2.813-3.869-3.192a25.613,25.613,0,0,1,2.1,2.476A13.576,13.576,0,0,1,535.407,76.264Z" transform="translate(-506.092 -52.938)"/><path class="g" d="M556.475,116.9a9.771,9.771,0,0,0-3.7.933c-.821.335-1.618.73-2.427,1.094-.243.109-.258.1-.272-.047-.036-.418-.383-.6-.638-.854-.133-.131-.207.019-.281.109-.307.372-.611.747-.923,1.115a.287.287,0,0,0-.088.283,8.154,8.154,0,0,0,.611,1.79.633.633,0,0,0,.561.408,1.4,1.4,0,0,0,.763-.343,25.226,25.226,0,0,1,6.517-3.841C557.48,117.181,556.99,116.9,556.475,116.9Z" transform="translate(-512.893 -73.705)"/><path class="g" d="M552.647,77.287c.172-.04.081-.162.069-.254-.022-.165-.057-.327-.076-.492a12.6,12.6,0,0,1-.184-2.261c.022-.355.022-.6.392-.658.607-.034,1.083,1.206,1.083,1.206a3.5,3.5,0,0,0-.1-1.1,27.631,27.631,0,0,0-1.146-3.793.469.469,0,0,0-.435-.37c.058.741.115,1.447.165,2.154.005.08.051.2-.06.238-.14.048-.168-.083-.212-.176a44.9,44.9,0,0,1-1.587-4.831s-.19.086-.221.621a13.693,13.693,0,0,0,.335,2.845c.187.85.451,1.678.651,2.54a14.242,14.242,0,0,0-1.8-1.62,2.743,2.743,0,0,0-.689-.317s3.1,3.88,3.561,6.1C552.425,77.283,552.511,77.318,552.647,77.287Z" transform="translate(-513.187 -52.626)"/><path class="g" d="M497.4,64.456a8.009,8.009,0,0,0,2.937,3.415,18,18,0,0,0,5.166,1.688,13.241,13.241,0,0,1-3.36-1.675c-1.309-.987-1.356-1.706-2.29-2.725a8.461,8.461,0,0,0-3.154-2.606,5.607,5.607,0,0,0-2.327-.679A5.632,5.632,0,0,1,497.4,64.456Z" transform="translate(-490.202 -50.483)"/><path class="g" d="M546.866,110.877c-.333.049-.888.784-3.67.4a26.775,26.775,0,0,0,1.206,2.589c.245.438.306.886,1.206.359.548-.321.5-.637.445-.8-.221-.626.022-.908.05-.808.079.206.247.68.4.7.346.051.887-1.452.928-1.368a3.839,3.839,0,0,1,.356,1.347c.062.817-.273,1.3.062,1.6a3.442,3.442,0,0,0,1.061.6c.121.042.029-.2,0-.3a27.79,27.79,0,0,0-1.744-4.162C547.048,110.831,547.079,110.857,546.866,110.877Z" transform="translate(-510.809 -71.159)"/><path class="g" d="M539.334,85.585a1.059,1.059,0,0,0-.929-.216c-.562.1-.739.539-.866,1.046a4.366,4.366,0,0,1-2.533-2.885,3.974,3.974,0,0,0,2.8,3.708,11.061,11.061,0,0,0,1.512.283s.843.624,1.253.918a7.59,7.59,0,0,0,.739.435c.172.1.944.416.944.181,0-.273-.214-.08-.329-.273a2.91,2.91,0,0,1-.232-.815,6.424,6.424,0,0,0-1.308-2.795,3.73,3.73,0,0,0-2.823-1.383,5.034,5.034,0,0,1,1.564.764,1.8,1.8,0,0,1,.743,1.477c-.005.894-.431.882-1.083.6a.835.835,0,0,1-.219-.159C538.291,86.207,538.191,85.525,539.334,85.585Z" transform="translate(-507.352 -59.623)"/><path class="g" d="M562.071,93.149c-.166-.35-.613-.266-.907-.431a15.693,15.693,0,0,1-3.565-2.6,4.213,4.213,0,0,1-1.132-1.933,3.036,3.036,0,0,0,.4,2.271,25.555,25.555,0,0,0,4.636,5.044.284.284,0,0,0,.194.087c.123-.021.076-.141.08-.222.023-.435-.02-.871.036-1.308C561.857,93.736,562.229,93.48,562.071,93.149Z" transform="translate(-516.38 -61.589)"/><path class="g" d="M557.521,84.135c-.084.039-.143-.022-.2-.071a2.087,2.087,0,0,1-.47-.762c-.233-.543-.344-1.125-.538-1.68a7.23,7.23,0,0,0,1.871,5.53c.381-1.58.427-3.541-.8-4.275.068.384.132.722.187,1.062C557.587,84,557.609,84.093,557.521,84.135Z" transform="translate(-516.341 -58.817)"/><path class="g" d="M541.312,104.7a6.2,6.2,0,0,1-1.981-.419c-.181-.059-.354-.186-.583-.1a5.631,5.631,0,0,0,3.793,1.191c.884-.035,1.217-.648.826-1.449a5.344,5.344,0,0,0-1.893-1.94,10.565,10.565,0,0,1,.669,1.639C542.318,104.348,542.053,104.7,541.312,104.7Z" transform="translate(-508.931 -67.411)"/><path class="g" d="M554.5,109.266a9.327,9.327,0,0,1,.47-2.987c.1-.192-.017-.225-.146-.292a2.277,2.277,0,0,1-.947-.872A3.543,3.543,0,0,0,554.5,109.266Z" transform="translate(-515.14 -68.733)"/><path class="g" d="M550.986,110.057c0,.1-.471.312-.457.349.592,1.563,1.193,2.641,1.791,4.2.042.109.068.4.287.312.025-.01.172-.069.172-.173a3.643,3.643,0,0,0-.114-.424A16.41,16.41,0,0,0,550.986,110.057Z" transform="translate(-513.903 -70.818)"/><path class="g" d="M555.7,114.231a6.98,6.98,0,0,1-.884.443c-.287.191-.207.207-.008.937.1.375.3.318.518.139a5.712,5.712,0,0,0,1.714-2.555A5.315,5.315,0,0,1,555.7,114.231Z" transform="translate(-515.635 -72.143)"/><path class="g" d="M529.854,98.651c-.116-.076-.346-.195-.435-.085a5.414,5.414,0,0,0,1.257,1.348,13.625,13.625,0,0,0,2.135,1.355c.135.053.3.06.349-.043.067-.068-.113-.185-.2-.247C531.813,100.106,530.938,99.362,529.854,98.651Z" transform="translate(-504.993 -65.95)"/><path class="g" d="M524.927,91.608c-.61-.207-1-.125-1.267.3a1.1,1.1,0,0,0,.158,1.262,1.592,1.592,0,0,0,1.2.631c-.587-.384-.928-.717-.926-1.2A.865.865,0,0,1,524.927,91.608Z" transform="translate(-502.507 -62.986)"/><path class="g" d="M546.773,104.533a.894.894,0,0,0,.393-.035c.091-.049.023-.191-.013-.286a6.817,6.817,0,0,0-2.287-2.37c.017.038,1.655,1.42,1.808,2.567C546.682,104.473,546.7,104.534,546.773,104.533Z" transform="translate(-511.513 -67.352)"/><path class="g" d="M513.538,99.413l2.192-4.428-1.14,2.044A12.887,12.887,0,0,0,513.538,99.413Z" transform="translate(-498.292 -64.457)"/></g></g><g transform="translate(474.034 102.495)"><path class="h" d="M564.842,167.981l-3.012-.488c0-.316-.029-.617-.01-.915.064-1.022.145-2.043.214-3.065.043-.624.073-1.25.116-1.874.071-1.05.147-2.1.22-3.15.04-.577.076-1.155.116-1.732q.113-1.66.228-3.32c.039-.577.076-1.155.114-1.732.047-.71.1-1.419.143-2.129.018-.265.026-.531.046-.8.011-.149.037-.3.061-.479,1.2.013,2.383-.038,3.573.051,0,.2.012.384,0,.561-.032.406-.1.811-.108,1.218a10.19,10.19,0,0,0,.087,1.076q.107,1.175.217,2.35c.034.368.072.736.11,1.1q.114,1.117.229,2.234c0,.035.016.069.035.149a.727.727,0,0,0,.112-.4c.07-.8.129-1.606.2-2.409s.153-1.6.229-2.406c.032-.34.065-.68.094-1.02q.1-1.134.187-2.267c.017-.2.037-.237.238-.235.891.006,1.782.021,2.674.035a.675.675,0,0,1,.126.028.991.991,0,0,1,.014.189c-.1.924-.2,1.846-.3,2.77-.029.273-.047.547-.073.821-.065.679-.128,1.359-.2,2.038-.072.7-.155,1.393-.231,2.09-.031.283-.052.566-.08.85q-.094.948-.191,1.9c-.08.763-.164,1.526-.243,2.29-.03.283-.051.566-.079.849-.066.689-.129,1.378-.2,2.066s-.155,1.393-.229,2.091c-.042.405-.073.812-.11,1.218a1.889,1.889,0,0,1-.029.283.677.677,0,0,0,.048.469.759.759,0,0,1,.072.477,2.654,2.654,0,0,1-.813-.122c-.5-.092-1-.2-1.5-.3-.158-.032-.314-.067-.473-.1a.2.2,0,0,1-.19-.235c.008-.246,0-.494.01-.739a27.626,27.626,0,0,0-.518-6.507c-.1-.51-.231-1.016-.351-1.522a1.684,1.684,0,0,0-.116-.25,1.3,1.3,0,0,0-.045.159c-.034.368-.07.736-.1,1.105-.092,1.22-.176,2.44-.273,3.66-.069.879-.15,1.756-.232,2.634a2.371,2.371,0,0,0,.147,1.255A1.448,1.448,0,0,1,564.842,167.981Z" transform="translate(-513.378 -148.061)"/><path class="h" d="M478.009,148.322c.132-.008.233-.02.335-.02,1.812,0,3.625.005,5.437-.005a1.281,1.281,0,0,1,1.085.437,5.571,5.571,0,0,0,.413.431,1.435,1.435,0,0,1,.4.946c.068.688.148,1.375.222,2.063.068.641.131,1.283.2,1.922s.159,1.3.237,1.947c.028.235.049.472.073.707.067.64.13,1.282.2,1.922s.158,1.3.236,1.946c.031.254.055.509.081.764.066.631.126,1.263.2,1.894s.158,1.278.235,1.918c.032.264.056.528.084.792.075.706.154,1.413.224,2.12a1.151,1.151,0,0,1-.528,1.1,3.486,3.486,0,0,1-1.08.5c-.671.2-1.348.378-2.023.566-.8.223-1.6.448-2.407.671-.107.03-.218.049-.361.08-.069-.432-.138-.839-.2-1.248q-.214-1.435-.422-2.87c-.091-.629-.173-1.259-.264-1.888-.138-.957-.282-1.914-.42-2.871-.091-.629-.172-1.259-.263-1.888-.138-.957-.282-1.914-.42-2.871-.091-.629-.173-1.259-.264-1.888-.138-.957-.283-1.913-.421-2.87-.083-.573-.157-1.146-.238-1.719-.11-.78-.223-1.558-.334-2.337C478.023,148.5,478.019,148.437,478.009,148.322Zm6.916,19.55c-.048-.444-.081-.794-.125-1.141-.132-1.044-.272-2.086-.4-3.13-.133-1.063-.26-2.126-.39-3.189-.105-.855-.213-1.711-.318-2.567-.085-.687-.166-1.374-.252-2.06q-.211-1.692-.428-3.385c-.062-.489-.121-.978-.181-1.467-.014-.115-.029-.232-.159-.278a4.733,4.733,0,0,0-.539-.175.428.428,0,0,0-.537.471q.12,1.016.254,2.03c.073.553.163,1.1.236,1.658.071.535.131,1.072.2,1.607.028.235.053.471.085.706.076.553.161,1.105.234,1.659s.135,1.09.2,1.635c.026.217.046.433.076.65.077.553.162,1.105.236,1.658s.137,1.109.2,1.663c.026.216.048.433.077.649.08.6.164,1.2.243,1.8.065.488.121.977.189,1.465a.344.344,0,0,0,.462.32,1.516,1.516,0,0,0,.316-.123C484.833,168.219,485.013,168.077,484.925,167.872Z" transform="translate(-478.009 -148.06)"/><path class="h" d="M584.527,170.724a2.424,2.424,0,0,1-.31-.016,19.715,19.715,0,0,1-3.545-1.014,3.748,3.748,0,0,1-1.941-1.552,1.784,1.784,0,0,1-.253-1.061c.032-.463.088-.924.138-1.386q.1-.975.213-1.949c.075-.659.155-1.318.231-1.977.038-.329.067-.66.109-.989.024-.194.067-.385.106-.606a1.346,1.346,0,0,1,.154.092c.481.414.968.823,1.438,1.249.21.19.384.418.579.625a.434.434,0,0,1,.12.365c-.031.292-.053.585-.09.877-.1.8-.21,1.6-.307,2.4-.051.423-.084.847-.122,1.272a.933.933,0,0,0,.187.586.977.977,0,0,0,.847.281c.123-.043.131-.153.146-.254q.055-.351.1-.7c.091-.743.176-1.486.271-2.229.071-.554.157-1.106.234-1.659.032-.235.054-.471.09-.705a.464.464,0,0,0-.167-.4c-.661-.718-1.318-1.44-1.981-2.156q-.571-.616-1.155-1.216a.419.419,0,0,1-.132-.377c.078-.706.13-1.415.205-2.121.069-.65.155-1.3.233-1.947q.046-.381.086-.763c.067-.641.128-1.283.2-1.923.047-.424.1-.848.165-1.268a1.626,1.626,0,0,1,.377-.754,3.977,3.977,0,0,1,1.667-1.145,4.018,4.018,0,0,1,1.932-.39,3.717,3.717,0,0,1,2.508,1.184,1.486,1.486,0,0,1,.364,1.24c-.112.807-.231,1.613-.342,2.419-.092.666-.174,1.334-.268,2-.072.516-.158,1.029-.234,1.544-.033.225-.058.451-.09.676q-.147,1.07-.3,2.138c-.012.083-.038.164-.065.28a2.347,2.347,0,0,1-.192-.146c-.6-.568-1.192-1.14-1.795-1.7a.46.46,0,0,1-.161-.448c.12-.891.22-1.784.328-2.677.067-.555.132-1.11.2-1.664.058-.47.116-.94.186-1.409a1.2,1.2,0,0,0-.21-.806.357.357,0,0,0-.476-.113.928.928,0,0,0-.536.78c-.051.575-.132,1.148-.2,1.722-.072.592-.147,1.184-.217,1.777s-.124,1.187-.208,1.778a2.76,2.76,0,0,0,.056.988.572.572,0,0,0,.157.259,36.488,36.488,0,0,1,2.706,3.069,1.7,1.7,0,0,1,.257.472.933.933,0,0,1,.039.413c-.083.687-.176,1.372-.274,2.056-.072.506-.161,1.01-.234,1.516-.095.656-.178,1.314-.272,1.97-.075.525-.157,1.049-.237,1.573q-.132.871-.267,1.741C584.562,170.59,584.546,170.643,584.527,170.724Z" transform="translate(-520.409 -147.888)"/><path class="h" d="M520.455,166.612l-2.759.21a1.36,1.36,0,0,1-.053-.216c-.036-.6-.072-1.193-.1-1.789q-.072-1.521-.135-3.041c-.019-.455-.03-.91-.045-1.365,0-.092-.014-.183-.023-.3a.775.775,0,0,0-.157.042c-.247.141-.49.29-.737.429a.477.477,0,0,0-.269.487q.082,1.377.145,2.756c.044.966.081,1.933.116,2.9.008.2-.024.228-.22.249q-1.1.121-2.2.243c-.286.032-.334,0-.36-.287-.046-.539-.088-1.078-.12-1.617-.095-1.629-.179-3.257-.276-4.886-.07-1.183-.154-2.366-.229-3.549-.029-.464-.053-.928-.079-1.392-.067-1.231-.132-2.462-.2-3.693-.036-.634-.075-1.269-.127-1.9a1.1,1.1,0,0,1,.148-.68,2.121,2.121,0,0,1,.732-.74,1.26,1.26,0,0,1,.679-.17c.949,0,1.9,0,2.846,0,.673,0,1.347-.005,2.021,0,.3,0,.6.032.922.05.012.129.027.23.029.332.038,1.441.07,2.882.111,4.324.046,1.621.1,3.242.15,4.864.01.351.006.7.017,1.052.05,1.631.105,3.261.152,4.892.026.882.04,1.764.057,2.646A.714.714,0,0,1,520.455,166.612Zm-4.3-8.591a1.776,1.776,0,0,0,.772-.381.7.7,0,0,0,.279-.592c-.016-.36-.008-.721-.022-1.081q-.079-2.046-.167-4.091c-.012-.265-.04-.529-.07-.793a1.271,1.271,0,0,0-.072-.3.469.469,0,0,0-.6-.328.744.744,0,0,0-.531.724c0,.35.011.7.027,1.051.044.957.1,1.912.142,2.868.04.862.073,1.723.109,2.585A.4.4,0,0,0,516.154,158.021Z" transform="translate(-492.615 -148.062)"/><path class="h" d="M497.27,168.826a.826.826,0,0,1-.049-.148q-.1-.917-.2-1.836-.123-1.174-.247-2.347c-.03-.292-.057-.585-.085-.878-.065-.689-.127-1.378-.2-2.067-.1-.962-.205-1.923-.3-2.885-.072-.7-.133-1.4-.205-2.094s-.154-1.414-.23-2.121c-.034-.311-.062-.622-.092-.934-.066-.689-.127-1.378-.2-2.067-.1-.952-.2-1.9-.3-2.856-.008-.074,0-.15,0-.25a1.182,1.182,0,0,1,.211-.038c1.347,0,2.7-.018,4.041.023a3.934,3.934,0,0,1,2.258.759,1.985,1.985,0,0,1,.815,1.584c.035.662.1,1.324.145,1.985.026.369.045.738.07,1.107q.061.88.125,1.759c.046.633.082,1.268.148,1.9a.952.952,0,0,1-.176.7c-.111.153-.242.292-.358.442s-.1.221.042.332c.008.006.017.008.025.014.67.514.589.431.656,1.248.06.727.106,1.456.155,2.184.025.369.043.738.067,1.107q.061.922.127,1.844c.046.633.1,1.267.143,1.9.01.14.014.281.024.455-.819.161-1.626.284-2.46.412-.024-.139-.052-.248-.062-.358q-.106-1.2-.206-2.409c-.081-.963-.164-1.927-.242-2.89-.043-.529-.072-1.06-.114-1.589-.017-.2-.053-.407-.083-.633a7.855,7.855,0,0,0-.8.006c-.261.028-.327.116-.309.379.04.567.095,1.133.143,1.7.026.312.051.624.077.935q.1,1.176.2,2.351.061.694.128,1.387c.036.377.077.754.116,1.131.017.172-.026.228-.214.266-.3.061-.595.116-.892.176-.529.106-1.057.214-1.586.321A.754.754,0,0,1,497.27,168.826Zm1.02-18.45c.013.2.02.338.034.478s.044.281.055.422c.068.812.133,1.625.2,2.437.024.293.047.586.073.879.085.944.17,1.887.26,2.83.017.186.056.369.086.557a1.991,1.991,0,0,0,.815-.1.654.654,0,0,0,.457-.621c0-.247,0-.494-.025-.739-.073-.859-.159-1.718-.233-2.577-.084-.983-.173-1.964-.232-2.948a.484.484,0,0,0-.462-.51c-.231-.049-.468-.072-.7-.1A3.217,3.217,0,0,0,498.29,150.377Z" transform="translate(-485.248 -148.063)"/><path class="h" d="M553.971,151.007c-.083,1.324-.167,2.629-.245,3.935-.042.719-.069,1.439-.111,2.159-.073,1.278-.156,2.555-.229,3.832-.043.757-.072,1.515-.113,2.273-.04.738-.094,1.476-.128,2.214a1.03,1.03,0,0,1-.58.88,3.446,3.446,0,0,1-1.636.411,9.494,9.494,0,0,1-3.165-.439,3.9,3.9,0,0,1-.725-.322.966.966,0,0,1-.54-.845c-.006-.151-.021-.3-.017-.455q.072-3,.149-6,.091-3.527.185-7.053c.008-.284.046-.569.034-.853a2.1,2.1,0,0,1,.8-1.744,4.252,4.252,0,0,1,3.808-1.007,3.506,3.506,0,0,1,1.648.788,2.394,2.394,0,0,1,.863,1.817C553.973,150.741,553.971,150.883,553.971,151.007Zm-3.3,6.371h.009c.007-.123.014-.246.019-.369.039-1.014.073-2.027.119-3.041.042-.937.1-1.874.142-2.812.024-.521-.055-.591-.579-.559-.391.023-.5.129-.521.523-.033.748-.06,1.5-.087,2.245-.01.265-.011.531-.023.8-.048,1.137-.1,2.273-.147,3.41-.012.294-.012.588-.023.881q-.073,1.805-.149,3.609-.023.569-.043,1.137c-.008.209-.023.417-.021.625s.032.229.224.262a3.005,3.005,0,0,0,.507.055c.235,0,.28-.05.291-.284q.078-1.619.15-3.239C550.588,159.539,550.629,158.458,550.673,157.379Z" transform="translate(-506.907 -147.889)"/><path class="h" d="M534.277,156.944c-.015-.417-.039-.775-.039-1.133,0-1.347.008-2.695.009-4.042a4.992,4.992,0,0,0-.028-.625c-.045-.356-.172-.489-.523-.525a3.238,3.238,0,0,0-.621.014.334.334,0,0,0-.323.307,3.13,3.13,0,0,0-.035.424q.022,4.042.047,8.084c.007,1.31.015,2.619,0,3.928,0,.35.124.452.454.458.151,0,.3.008.455,0,.286-.014.361-.095.374-.388,0-.1,0-.209,0-.313,0-.636,0-1.272,0-1.907a1.317,1.317,0,0,0-.135-.6c-.1-.2-.187-.394-.272-.594a.412.412,0,0,1,.208-.614c.156-.089.321-.162.477-.25.666-.38,1.33-.765,2-1.145.156-.089.318-.166.477-.251.2-.109.367-.027.4.209a1.872,1.872,0,0,1,0,.284c-.029,1.6-.061,3.206-.087,4.81-.015.939-.02,1.879-.032,2.818-.006.482-.091.545-.569.409-.282-.08-.561-.175-.836-.276a.678.678,0,0,0-.523.01,3.264,3.264,0,0,1-1.3.264c-.588-.008-1.178.014-1.765-.017-.462-.025-.923-.1-1.382-.174a1.381,1.381,0,0,1-.369-.143.613.613,0,0,1-.381-.581c-.029-1.318-.072-2.637-.1-3.955q-.052-2.362-.09-4.724-.051-3.287-.092-6.575c0-.086,0-.171,0-.256a1.343,1.343,0,0,1,.643-1.251,3.638,3.638,0,0,1,1.27-.55,6.81,6.81,0,0,1,2.119-.168,4.64,4.64,0,0,1,2.207.673,1.758,1.758,0,0,1,.91,1.651c-.042,1.726-.05,3.453-.072,5.18,0,.086-.006.171-.007.256a.276.276,0,0,1-.153.254,13.19,13.19,0,0,1-1.926.973A1.909,1.909,0,0,1,534.277,156.944Z" transform="translate(-499.815 -147.887)"/></g><g transform="translate(491.792 97.787)"><path class="h" d="M508.753,139.871a1.251,1.251,0,0,1,.181-.03c.558,0,1.115-.01,1.672.008a.733.733,0,0,1,.71.45.658.658,0,0,1-.194.8c-.04.035-.083.069-.142.118.067.047.114.086.168.118a.682.682,0,0,1,.345.806.716.716,0,0,1-.586.6,6.009,6.009,0,0,1-.774.083c-.353.014-.706,0-1.059,0-.305,0-.325-.021-.336-.334-.006-.167,0-.335,0-.5q0-.906,0-1.811C508.737,140.078,508.747,139.979,508.753,139.871Zm.965,2.293a5.55,5.55,0,0,0,.619-.006.284.284,0,0,0,.244-.32c-.009-.154-.088-.231-.27-.262a1.459,1.459,0,0,0-.167-.013c-.5-.021-.57.068-.454.561A.248.248,0,0,0,509.719,142.164Zm.207-1.138a2.268,2.268,0,0,0,.347-.048.27.27,0,0,0,.2-.273c0-.111-.044-.22-.154-.238a3.857,3.857,0,0,0-.549-.027c-.028,0-.079.041-.08.065a1.392,1.392,0,0,0,.014.434C509.716,140.993,509.87,141.007,509.925,141.026Z" transform="translate(-508.735 -139.782)"/><path class="h" d="M561.174,141.618c-.291.22-.545.429-.484.826a.664.664,0,0,1,0,.139c-.013.2-.04.229-.231.237-.158.008-.316,0-.474,0-.142,0-.2-.071-.208-.2,0-.065-.012-.13-.012-.195q0-1.157,0-2.315c0-.073.011-.146.02-.25a3.627,3.627,0,0,1,.775-.013c.11.005.127.095.128.183,0,.167,0,.335,0,.5a.72.72,0,0,0,.068.324c.169-.188.343-.371.506-.565.474-.564.316-.44.979-.453.158,0,.316.007.473.013.016,0,.03.018.077.049-.289.383-.679.673-.983,1.074l1.1,1.793a1.156,1.156,0,0,1-.212.054c-.213.005-.428,0-.641,0a.3.3,0,0,1-.315-.177c-.145-.28-.295-.558-.444-.836C561.262,141.749,561.221,141.692,561.174,141.618Z" transform="translate(-530.271 -139.78)"/><path class="h" d="M536.693,142.816c-.309,0-.566.008-.822-.007-.053,0-.115-.085-.148-.144a3.316,3.316,0,0,1-.145-.337h-.9c-.143,0-.182.106-.218.214-.092.277-.092.278-.389.28h-.561a1.839,1.839,0,0,1,.052-.333c.3-.817.613-1.631.918-2.446a.281.281,0,0,1,.315-.21c.185.012.372.009.557,0a.274.274,0,0,1,.311.206c.2.558.42,1.11.632,1.665q.144.377.285.756C536.611,142.557,536.64,142.654,536.693,142.816Zm-1.954-1.156h.628a4.361,4.361,0,0,0-.276-.945l-.067,0Z" transform="translate(-519.189 -139.78)"/><path class="h" d="M548.719,141.59c.2.058.391.109.576.166a1.111,1.111,0,0,1,.164.086,1.09,1.09,0,0,1-.545.8,1.033,1.033,0,0,1-.582.165,4.01,4.01,0,0,1-.72-.044,1.282,1.282,0,0,1-.974-.971,1.955,1.955,0,0,1,.047-1.232,1.086,1.086,0,0,1,.588-.641,1.913,1.913,0,0,1,1.593,0,1.014,1.014,0,0,1,.549.726,1.6,1.6,0,0,1-.658.147c-.062,0-.132-.086-.181-.146a.557.557,0,0,0-.517-.214.585.585,0,0,0-.543.545,2.868,2.868,0,0,0,0,.667.538.538,0,0,0,.423.5.564.564,0,0,0,.648-.319Z" transform="translate(-524.699 -139.741)"/><path class="h" d="M521.759,139.865h.872c.011.109.028.206.029.3,0,.521,0,1.043,0,1.564,0,.11.01.22.017.366l1.431.029c0,.18,0,.327,0,.473-.006.2-.028.224-.225.233-.1.005-.205,0-.307,0-.512,0-1.024,0-1.536,0-.246,0-.268-.024-.3-.265a2.124,2.124,0,0,1-.012-.251c0-.7,0-1.4,0-2.1C521.735,140.115,521.749,140.006,521.759,139.865Z" transform="translate(-514.22 -139.793)"/></g><g transform="translate(497.339 124.393)"><path class="h" d="M527.758,189.053l-.723.094a.655.655,0,0,1-.139-.407c-.073-.735-.15-1.47-.223-2.2-.008-.078,0-.158,0-.264.268-.025.525-.062.783-.065a.387.387,0,0,1,.24.145c.292.331.573.673.86,1.008.072.084.152.161.229.242l.064-.029-.1-1.47h.888c.114.9.075,1.83.19,2.77a2.5,2.5,0,0,1-.813.1c-.068,0-.145-.1-.2-.164-.31-.364-.614-.732-.922-1.1-.038-.046-.085-.083-.155-.151C527.632,188.079,527.838,188.555,527.758,189.053Z" transform="translate(-521.85 -185.914)"/><path class="h" d="M541.461,186.023v.506a14.816,14.816,0,0,1-1.6-.01l-.022.462,1.444.095v.52a1.8,1.8,0,0,1-.23.023c-.316-.009-.631-.021-.947-.035-.262-.012-.294.016-.307.282,0,.027,0,.054,0,.081.005.194.024.219.218.231.3.017.6.022.892.04.151.01.3.039.462.06v.562a1.65,1.65,0,0,1-.229.026q-.906-.03-1.812-.066c-.472-.02-.473-.022-.469-.5q.009-1.043.02-2.085c0-.312.021-.335.319-.323.685.027,1.37.062,2.055.1C541.314,185.992,541.376,186.009,541.461,186.023Z" transform="translate(-526.995 -185.825)"/><path class="h" d="M520.893,187.75l-.713.134c-.11.021-.157-.062-.221-.125a.5.5,0,0,0-.618-.06.275.275,0,0,0-.11.195.251.251,0,0,0,.146.162,1.277,1.277,0,0,0,.317.054c.259.029.523.038.777.087a.769.769,0,0,1,.688.6.874.874,0,0,1-.382.968,2,2,0,0,1-.566.242,2.175,2.175,0,0,1-1.017.052.93.93,0,0,1-.693-.738,2.9,2.9,0,0,1,.692-.169c.113-.01.154.066.21.139a.538.538,0,0,0,.7.15.3.3,0,0,0,.187-.3.243.243,0,0,0-.225-.232c-.186-.032-.375-.046-.559-.082a3.554,3.554,0,0,1-.73-.17.691.691,0,0,1-.176-1.194,1.035,1.035,0,0,1,.317-.2,2.152,2.152,0,0,1,1.477-.12A.729.729,0,0,1,520.893,187.75Z" transform="translate(-518.332 -186.318)"/><path class="h" d="M535.844,186.663c-.249.053-.466.1-.686.146-.114.023-.149-.076-.207-.143a.592.592,0,0,0-.937-.012.9.9,0,0,0-.161.475,2.344,2.344,0,0,0,.086.665.442.442,0,0,0,.426.32.551.551,0,0,0,.563-.243c.057-.09.107-.185.172-.3.233.065.458.121.678.193.1.032.086.116.05.2a1.156,1.156,0,0,1-.906.768,1.976,1.976,0,0,1-1.245-.114,1.3,1.3,0,0,1-.736-1.036,3.11,3.11,0,0,1-.008-.671,1.137,1.137,0,0,1,.861-1.033,2.09,2.09,0,0,1,1.3,0A1.111,1.111,0,0,1,535.844,186.663Z" transform="translate(-524.489 -185.776)"/><path class="h" d="M546.486,188.658a1.587,1.587,0,0,1,.715-.039c.053.007.1.089.143.144a.327.327,0,0,0,.561,0,3.229,3.229,0,0,0,.2-.486l-.046-.04-.212.076a1,1,0,0,1-1.1-.305.973.973,0,0,1-.1-1.113.9.9,0,0,1,.667-.457,1.9,1.9,0,0,1,1.086.142.987.987,0,0,1,.6.814,2.338,2.338,0,0,1-.223,1.419,1.035,1.035,0,0,1-.773.572,1.939,1.939,0,0,1-.855-.057A.918.918,0,0,1,546.486,188.658Zm1.683-1.215c.006-.289-.128-.48-.327-.519-.254-.05-.433.083-.5.372a.475.475,0,0,0,.278.6.41.41,0,0,0,.464-.192A1.531,1.531,0,0,0,548.169,187.443Z" transform="translate(-530.215 -186.044)"/><path class="h" d="M553.176,187.825l-1.4-.24c-.1-.214.007-.4.021-.62a9.011,9.011,0,0,1,1.253.165c.409.047.813.144,1.244.225-.017.261-.014.481-.264.643a3.172,3.172,0,0,0-1.272,1.791c-.067.213-.073.217-.276.179-.124-.023-.248-.039-.373-.055a.16.16,0,0,1-.157-.2,1,1,0,0,1,.049-.18,3.411,3.411,0,0,1,.974-1.468c.047-.042.091-.087.135-.132A.935.935,0,0,0,553.176,187.825Z" transform="translate(-532.431 -186.278)"/><path class="h" d="M524.7,186.555c.145.954.218,1.884.339,2.838l-.863.134a3.378,3.378,0,0,1-.109-.408c-.069-.518-.128-1.037-.192-1.556-.029-.232-.069-.464-.093-.7-.019-.191.006-.223.2-.247C524.2,186.593,524.428,186.579,524.7,186.555Z" transform="translate(-520.631 -186.105)"/></g></g></svg>