<svg xmlns="http://www.w3.org/2000/svg" width="415" height="470" viewBox="0 0 415 470">
  <defs>
    <style>
      .cls-1 {
        fill-rule: evenodd;
      }
    </style>
  </defs>
  <path id="Preenchimento_de_Cor_1" data-name="Preenchimento de Cor 1" class="cls-1" d="M187,13c76.537,66,103.317,119.71,115,149s12.455,34.9,16,55h1c5.939-14.873,7.222-24.656,8-44h1c8.093,23.64,15.7,46.487,21,73,13.44,67.217-14,128.5-41,162,58.911-38.1,96.916-128.392,63-210-9.915-23.856-23.771-46.162-41-63-5.666-4.333-11.334-9.667-17-14-7-12.332-13-22.668-20-35,74.961,23.638,140.935,142.773,100,247-27.7,70.521-100.251,124.261-183,126-97.748,2.054-170.745-70.73-192-142C-11.187,219.137,53.232,118.743,119,89c-1.171,9.777-1.388,17.429-2,24C66.5,142.635,18.15,217.543,33,291c4.879,24.135,11.225,44.5,25,68,0.411,0.734.1,0.07,0-1-16.484-99.809,30.827-121.443,63-177,8.138-14.053,11.727-38.329,13-49s0-30.335,0-45c1.333,1,3.667,3,5,4,12.139,21.372,28.678,35.661,37,62l2-1C200.5,102.9,203.008,73.465,187,13Zm24,40c5.405,61.374-7.118,112.763-44,140h-1c3.178-28.694-6.692-42.15-15-60-0.9-1.758-2-2.177-2,0,0.826,52.91-25.132,73.639-43,106-7.214,13.065-10.616,33.48-10,50-0.333-.667-1.667-5.333-2-6-1.666-7-3.123-11.3-4-22-11.431,21.214-10.4,28.11-13,52-7.1,65.291,42.193,107.023,87,124q-9.5-28.5-19-57l1-1,12,16h1c-0.667-40.7,20.019-50.246,37-72,0.259-21.155-4.634-41.887-11-58l1-1c9.589,7.752,18.123,25.111,21,39h1q3-12.5,6-25,0.5-16,1-32l2,1,6,23,2-1c4.026-8.483,16.779-15.889,27-18v1l-5,5-22,32c-5.242,13.894-2.531,27.788-9,39l-24,29,29-12v1l-2,3-17,16c-25.986,26.239-18.618,40.027-8,76,38.623,10.989,91.671-27.252,105-47-6,1.072-14.163,3.818-24,2,0.667-.333.779-0.406,2-1,13.525-7.118,21.695-15.049,31-25,21.444-27.191,28.3-80.751,22-129l-1,2c-7.151,13.7-14.871,30.322-29,37C316.168,199.693,252.734,94.093,211,53ZM179,68c-1,7-1.829,19.21-2.048,21.069-0.944-.051-4.565.08-7.952-0.069-5.814-10.21-12.238-13.868-13-16C166.142,70.746,173.429,68.78,179,68Zm-42,62"/>
</svg>
